<svg width="39" height="38" viewBox="0 0 39 38" fill="none" xmlns="http://www.w3.org/2000/svg">
<path d="M19.2127 0C8.60322 0 0 8.60162 0 19.2127C0 27.7014 5.50503 34.9031 13.1388 37.4436C14.099 37.6215 14.4515 37.0268 14.4515 36.5194C14.4515 36.0612 14.4337 34.5478 14.4254 32.9424C9.08045 34.1046 7.95259 30.6755 7.95259 30.6755C7.07862 28.4548 5.81936 27.8643 5.81936 27.8643C4.0762 26.6718 5.95076 26.6963 5.95076 26.6963C7.88005 26.8319 8.89592 28.6762 8.89592 28.6762C10.6095 31.6134 13.3905 30.7643 14.4868 30.2734C14.6593 29.0316 15.1572 28.184 15.7067 27.7043C11.4392 27.2184 6.95327 25.571 6.95327 18.2093C6.95327 16.1117 7.70379 14.3978 8.93282 13.0523C8.73334 12.5684 8.07572 10.6143 9.11895 7.96786C9.11895 7.96786 10.7323 7.4515 14.4038 9.93724C15.9364 9.51155 17.5799 9.29807 19.2127 9.29075C20.8455 9.29807 22.4903 9.51155 24.0258 9.93724C27.6928 7.4515 29.3039 7.96786 29.3039 7.96786C30.3497 10.6143 29.6918 12.5684 29.4923 13.0523C30.7242 14.3978 31.4696 16.1117 31.4696 18.2093C31.4696 25.5885 26.9751 27.2133 22.6968 27.689C23.3859 28.2852 24 29.4544 24 31.2469C24 33.8176 23.9777 35.8866 23.9777 36.5194C23.9777 37.0306 24.3235 37.6297 25.2974 37.4411C32.9271 34.8977 38.4251 27.6985 38.4251 19.2127C38.4251 8.60162 29.8232 0 19.2127 0ZM7.19579 27.3689C7.15347 27.4644 7.0033 27.493 6.8665 27.4275C6.72715 27.3648 6.64888 27.2347 6.69406 27.1389C6.73542 27.0406 6.8859 27.0132 7.02494 27.0791C7.16461 27.1418 7.24415 27.2732 7.19579 27.3689ZM8.14084 28.2122C8.04921 28.2971 7.87009 28.2577 7.74855 28.1234C7.62288 27.9895 7.59934 27.8103 7.69224 27.7241C7.78673 27.6392 7.96045 27.6789 8.08643 27.8129C8.21211 27.9484 8.2366 28.1263 8.14084 28.2122ZM8.78918 29.2911C8.67146 29.3729 8.47898 29.2962 8.35999 29.1253C8.24227 28.9545 8.24227 28.7496 8.36254 28.6675C8.48184 28.5854 8.67146 28.6592 8.79204 28.8288C8.90944 29.0025 8.90944 29.2074 8.78918 29.2911ZM9.88566 30.5406C9.78036 30.6568 9.55606 30.6256 9.39189 30.4671C9.2239 30.3122 9.17713 30.0924 9.28276 29.9762C9.38934 29.8598 9.61492 29.8926 9.78036 30.0497C9.94707 30.2043 9.99797 30.4258 9.88566 30.5406ZM11.3028 30.9625C11.2563 31.113 11.0403 31.1814 10.8227 31.1174C10.6054 31.0515 10.4632 30.8753 10.5071 30.7232C10.5522 30.5718 10.7692 30.5005 10.9884 30.5689C11.2054 30.6344 11.3479 30.8094 11.3028 30.9625ZM12.9155 31.1414C12.9209 31.2998 12.7364 31.4312 12.5079 31.4341C12.2782 31.4392 12.0924 31.311 12.0899 31.1551C12.0899 30.995 12.2703 30.8649 12.5 30.8611C12.7284 30.8566 12.9155 30.9839 12.9155 31.1414ZM14.4998 31.0807C14.5272 31.2353 14.3684 31.394 14.1416 31.4364C13.9185 31.4771 13.712 31.3816 13.6837 31.2283C13.6561 31.0698 13.8177 30.9111 14.0404 30.87C14.2675 30.8306 14.4708 30.9235 14.4998 31.0807Z" fill="#42365A" fill-opacity="0.71"/>
</svg>
