<svg width="38" height="38" viewBox="0 0 38 38" fill="none" xmlns="http://www.w3.org/2000/svg">
<g clip-path="url(#clip0)">
<path d="M29.9001 0H8.03871C3.72734 0 0.231079 3.49626 0.231079 7.80763V29.669C0.231079 33.9804 3.72734 37.4766 8.03871 37.4766H29.9001C34.213 37.4766 37.7077 33.9804 37.7077 29.669V7.80763C37.7077 3.49626 34.213 0 29.9001 0ZM12.7233 29.669H8.03871V12.4922H12.7233V29.669ZM10.381 10.5122C8.87256 10.5122 7.64833 9.27859 7.64833 7.75766C7.64833 6.23673 8.87256 5.00313 10.381 5.00313C11.8894 5.00313 13.1137 6.23673 13.1137 7.75766C13.1137 9.27859 11.891 10.5122 10.381 10.5122ZM31.4616 29.669H26.777V20.9182C26.777 15.659 20.5309 16.0572 20.5309 20.9182V29.669H15.8463V12.4922H20.5309V15.2483C22.7108 11.2102 31.4616 10.9119 31.4616 19.1146V29.669Z" fill="#42365A" fill-opacity="0.71"/>
</g>
<defs>
<clipPath id="clip0">
<rect x="0.231079" width="37.4766" height="37.4766" fill="white"/>
</clipPath>
</defs>
</svg>
