<svg width="47" height="38" viewBox="0 0 47 38" fill="none" xmlns="http://www.w3.org/2000/svg">
<path d="M47 4.44918C45.2984 5.20382 43.4697 5.71385 41.5504 5.94324C43.5095 4.7689 45.0139 2.90945 45.7223 0.693911C43.8891 1.78113 41.8584 2.57079 39.6972 2.9964C37.9663 1.15235 35.5004 0 32.7715 0C27.5313 0 23.2829 4.24822 23.2829 9.48807C23.2829 10.2317 23.367 10.9559 23.5287 11.6503C15.6429 11.2547 8.65154 7.47722 3.97179 1.73681C3.15506 3.13816 2.68716 4.76806 2.68716 6.5069C2.68716 9.79866 4.36239 12.7029 6.90831 14.4043C5.35284 14.3551 3.88991 13.9283 2.61053 13.2176C2.60985 13.2572 2.60985 13.297 2.60985 13.3369C2.60985 17.9341 5.88047 21.769 10.221 22.6406C9.42479 22.8574 8.58658 22.9733 7.72114 22.9733C7.10978 22.9733 6.51534 22.9139 5.93612 22.8031C7.14344 26.5728 10.6475 29.316 14.7995 29.3926C11.5522 31.9373 7.46097 33.4542 3.01567 33.4542C2.24987 33.4542 1.49455 33.4094 0.752258 33.3218C4.95125 36.0138 9.93871 37.5845 15.297 37.5845C32.7493 37.5845 42.2929 23.1266 42.2929 10.5883C42.2929 10.1769 42.2837 9.7677 42.2654 9.36086C44.1191 8.02311 45.7279 6.35194 47 4.44918Z" fill="#42365A" fill-opacity="0.71"/>
</svg>
